<svg width="100" height="100" viewBox="0 0 100 100" fill="none" xmlns="http://www.w3.org/2000/svg">
<path d="M40.3165 7.8481L40.8358 15.806C40.8358 15.8792 33.1829 18.6255 31.9746 19.8338L26.7384 14.5976C25.1273 12.9865 23.7847 13.5236 23.1134 14.1949L13.4466 23.8616C12.641 24.6672 12.2382 25.8756 13.8494 27.4867L18.6709 32.3418C18.6709 32.3418 15.2532 39.7468 15.2532 41.4557H7.8481C5.56962 41.4557 5 42.7848 5 43.7342V57.4051C5 58.5443 5.56962 59.6836 7.8481 59.6836L15.806 59.6836C15.8228 59.6836 18.6255 67.3364 19.8338 68.5448L14.5977 73.781C12.9865 75.3921 13.5236 76.7347 14.1949 77.406L23.8617 87.0728C24.6672 87.8784 25.8756 88.2811 27.4867 86.67L32.3418 81.3292C32.3418 81.3292 39.7469 84.7469 41.4557 84.7469V92.1519C41.4557 94.4304 42.7848 95 43.7342 95L57.4051 95.0001C58.5443 95.0001 59.6836 94.4304 59.6836 92.152L59.6836 84.7133C59.6836 84.7133 67.3364 81.8939 68.5448 80.6855L73.781 85.9217C75.3921 87.5328 76.7347 86.9958 77.406 86.3245L87.0728 76.6577C87.8784 75.8521 88.2811 74.6438 86.67 73.0326L81.3292 67.6583C81.3292 67.6583 84.7469 60.2532 84.7469 58.5443H92.152C94.4304 58.5443 95.0001 57.2152 95.0001 56.2658V42.5949C95.0001 41.4557 94.4304 40.3165 92.152 40.3165L84.7469 40.3165C84.7469 40.3165 81.8939 33.1829 80.6856 31.9746L85.9217 26.7384C87.5329 25.1273 86.9958 23.7847 86.3245 23.1134L76.6577 13.4466C75.8522 12.641 74.6438 12.2382 73.0327 13.8494L67.7965 19.0855C67.6583 19.2405 60.2532 15.2532 58.5444 15.2532V7.8481C58.5444 5.56962 57.2152 5 56.2659 5H42.595C41.4557 5 40.3165 5.56962 40.3165 7.8481Z" stroke="black"/>
<circle cx="50" cy="50" r="15.25" stroke="black"/>
</svg>
